# xmcd
#
# Track frame offsets: 
#        150
#        16368
#        32510
#        51405
#        68764
#        84721
#        100660
#        115967
#        130900
#        148277
#
# Disc length: 2162 seconds
#
# Revision: 1
# Processed by: cddbd v1.5.2PL0 Copyright (c) Steve Scherf et al.
# Submitted via: ExactAudioCopy v1.0b3
#
DISCID=8a08700a
DTITLE=Roy Roberts - It's Only You
DYEAR=2008
DGENRE=Blues
TTITLE0=Got To Watch My Step
TTITLE1=Going Out Tonight
TTITLE2=It's Only You
TTITLE3=Looking Bad Situation
TTITLE4=Singing Another Blues Song
TTITLE5=Cheerwine
TTITLE6=The Rain Was Falling
TTITLE7=Step Out Of My Dreams
TTITLE8=Picture Of Beauty
TTITLE9=Motherless Child
EXTD=
EXTT0=
EXTT1=
EXTT2=
EXTT3=
EXTT4=
EXTT5=
EXTT6=
EXTT7=
EXTT8=
EXTT9=
PLAYORDER=
